<?xml version="1.0" ?><!DOCTYPE svg  PUBLIC '-//W3C//DTD SVG 1.1//EN'  'http://www.w3.org/Graphics/SVG/1.1/DTD/svg11.dtd'><svg enable-background="new 0 0 512 512" id="Layer_1" version="1.1" viewBox="0 0 512 512" xml:space="preserve" xmlns="http://www.w3.org/2000/svg" xmlns:xlink="http://www.w3.org/1999/xlink"><g><path d="M175.2,289.1c-7.1,5.4-14.2,10.7-21.2,16.1c-37.9,28.9-75.7,57.7-113.6,86.6c-2.1,1.6-3.7,2-6.2,0.7   c-7.6-4.1-15.5-7.7-23.1-11.9c-1.6-0.9-3.1-3.5-3.1-5.3c-0.1-79-0.1-158,0-237c0-1.8,1.6-4.3,3.2-5.2c7.3-4,14.9-7.5,22.2-11.4   c3-1.6,5.1-1.4,7.9,0.7c44.6,34.1,89.2,68,134.3,102.4c7.7-7.4,15.3-14.7,22.9-22.1c57.9-56.5,115.8-113,173.8-169.5   c8.7-8.5,17.6-16.8,26.2-25.4c2.5-2.5,4.6-3,7.8-1.7c28.5,11.6,57.1,23,85.7,34.5c2.5,1,4.9,2.3,7.4,2.9c5.2,1.2,6.7,4.1,6.7,9.5   c-0.2,136.1-0.1,272.3,0,408.4c0,4.5-1.1,6.6-5.5,8.3c-31.6,12.4-63.1,25.1-94.6,37.8c-2.9,1.2-4.6,0.9-6.9-1.3   C335.6,444.4,272,382.7,208.5,321c-10-9.7-20.1-19.5-30.1-29.2C177.5,291,176.5,290.2,175.2,289.1z M256.7,256.5   c43,32.4,85.2,64.2,127.9,96.3c0-64.4,0-127.8,0-191.9C341.8,192.9,299.5,224.5,256.7,256.5z M116.7,256.6   c-21.4-19.1-42.4-37.9-64.2-57.3c0,38.9,0,76.5,0,115.5C74.3,295,95.3,276,116.7,256.6z"/></g></svg>