<svg xmlns="http://www.w3.org/2000/svg" xmlns:xlink="http://www.w3.org/1999/xlink" width="216.144" height="72.00000000000001"><path d="M14.83 38.74L14.83 38.74L14.83 38.74Q14.83 39.74 14.04 40.61L14.04 40.61L14.04 40.61Q13.25 41.47 11.88 42.16L11.88 42.16L11.88 42.16Q10.51 42.84 8.75 43.42L8.75 43.42L8.75 43.42Q6.98 43.99 5.04 44.50L5.04 44.50L5.04 44.50Q4.97 45.29 4.93 46.08L4.93 46.08L4.93 46.08Q4.90 46.87 4.90 47.81L4.90 47.81L4.90 47.81Q4.90 49.61 5.69 50.83L5.69 50.83L5.69 50.83Q6.48 52.06 7.92 52.06L7.92 52.06L7.92 52.06Q9.36 52.06 10.62 51.34L10.62 51.34L10.62 51.34Q11.88 50.62 12.89 49.39L12.89 49.39L12.89 49.39Q13.18 49.25 13.32 49.46L13.32 49.46L13.32 49.46Q13.46 49.68 13.32 49.97L13.32 49.97L13.32 49.97Q12.10 51.62 10.26 52.81L10.26 52.81L10.26 52.81Q8.42 54.00 6.41 54.00L6.41 54.00L6.41 54.00Q4.54 54.00 3.35 52.78L3.35 52.78L3.35 52.78Q2.16 51.55 2.16 49.18L2.16 49.18L2.16 49.18Q2.16 47.02 2.95 44.60L2.95 44.60L2.95 44.60Q3.74 42.19 5.04 40.18L5.04 40.18L5.04 40.18Q6.34 38.16 8.03 36.86L8.03 36.86L8.03 36.86Q9.72 35.57 11.59 35.57L11.59 35.57L11.59 35.57Q12.96 35.57 13.90 36.54L13.90 36.54L13.90 36.54Q14.83 37.51 14.83 38.74ZM10.08 37.44L10.08 37.44L10.08 37.44Q8.42 37.44 7.13 38.88L7.13 38.88L7.13 38.88Q5.83 40.32 5.26 43.42L5.26 43.42L5.26 43.42Q8.71 42.91 10.33 41.94L10.33 41.94L10.33 41.94Q11.95 40.97 11.95 39.74L11.95 39.74L11.95 39.74Q11.95 38.74 11.45 38.09L11.45 38.09L11.45 38.09Q10.94 37.44 10.08 37.44ZM19.08 42.48L19.08 42.48L19.08 42.48Q20.02 42.41 21.49 42.26L21.49 42.26L21.49 42.26Q22.97 42.12 24.62 42.01L24.62 42.01L24.62 42.01Q26.28 41.90 27.90 41.83L27.90 41.83L27.90 41.83Q29.52 41.76 30.74 41.76L30.74 41.76L30.74 41.76Q31.03 41.83 30.96 42.12L30.96 42.12L30.96 42.12Q30.89 42.41 30.64 42.73L30.64 42.73L30.64 42.73Q30.38 43.06 29.95 43.34L29.95 43.34L29.95 43.34Q29.52 43.63 29.02 43.70L29.02 43.70L29.02 43.70Q27.72 43.70 26.14 43.74L26.14 43.74L26.14 43.74Q24.55 43.78 23.00 43.85L23.00 43.85L23.00 43.85Q21.46 43.92 20.02 43.96L20.02 43.96L20.02 43.96Q18.58 43.99 17.64 44.06L17.64 44.06L17.64 44.06Q17.14 43.92 17.64 43.31L17.64 43.31L17.64 43.31Q18.14 42.70 19.08 42.48ZM74.02 51.48L74.02 51.48L74.02 51.48Q74.30 47.30 73.91 42.59L73.91 42.59L73.91 42.59Q73.51 37.87 73.15 33.44L73.15 33.44L73.15 33.44Q72.79 29.02 72.79 25.38L72.79 25.38L72.79 25.38Q72.79 21.74 73.94 19.66L73.94 19.66L73.94 19.66Q71.28 23.47 69.12 26.78L69.12 26.78L69.12 26.78Q66.96 30.10 65.02 33.52L65.02 33.52L65.02 33.52Q63.07 36.94 61.24 40.72L61.24 40.72L61.24 40.72Q59.40 44.50 57.38 49.10L57.38 49.10L57.38 49.10Q56.30 51.62 55.98 52.81L55.98 52.81L55.98 52.81Q55.66 54.00 55.01 54.00L55.01 54.00L55.01 54.00Q54.43 54.00 54.29 53.46L54.29 53.46L54.29 53.46Q54.14 52.92 54.65 51.48L54.65 51.48L54.65 51.48Q58.32 41.83 59.51 34.13L59.51 34.13L59.51 34.13Q60.70 26.42 59.87 21.02L59.87 21.02L59.87 21.02Q59.04 15.62 56.41 12.74L56.41 12.74L56.41 12.74Q53.78 9.86 49.90 9.86L49.90 9.86L49.90 9.86Q47.23 9.86 45.11 10.94L45.11 10.94L45.11 10.94Q42.98 12.02 41.51 13.97L41.51 13.97L41.51 13.97Q40.03 15.91 39.24 18.58L39.24 18.58L39.24 18.58Q38.45 21.24 38.45 24.34L38.45 24.34L38.45 24.34Q38.30 24.77 37.98 24.84L37.98 24.84L37.98 24.84Q37.66 24.91 37.66 24.55L37.66 24.55L37.66 24.55Q37.51 21.10 38.52 17.96L38.52 17.96L38.52 17.96Q39.53 14.83 41.44 12.46L41.44 12.46L41.44 12.46Q43.34 10.08 46.08 8.68L46.08 8.68L46.08 8.68Q48.82 7.27 52.27 7.27L52.27 7.27L52.27 7.27Q55.22 7.27 57.24 8.78L57.24 8.78L57.24 8.78Q59.26 10.30 60.41 13.00L60.41 13.00L60.41 13.00Q61.56 15.70 61.92 19.33L61.92 19.33L61.92 19.33Q62.28 22.97 61.92 27.22L61.92 27.22L61.92 27.22Q61.56 31.46 60.52 36.14L60.52 36.14L60.52 36.14Q59.47 40.82 57.89 45.50L57.89 45.50L57.89 45.50Q59.83 41.04 62.46 36.11L62.46 36.11L62.46 36.11Q65.09 31.18 68.08 26.50L68.08 26.50L68.08 26.50Q71.06 21.82 74.20 17.78L74.20 17.78L74.20 17.78Q77.33 13.75 80.35 11.02L80.35 11.02L80.35 11.02Q80.57 10.94 80.75 11.16L80.75 11.16L80.75 11.16Q80.93 11.38 81 11.74L81 11.74L81 11.74Q81.07 12.10 81.04 12.46L81.04 12.46L81.04 12.46Q81 12.82 80.78 13.10L80.78 13.10L80.78 13.10Q79.78 13.75 79.09 14.36L79.09 14.36L79.09 14.36Q78.41 14.98 77.62 15.98L77.62 15.98L77.62 15.98Q76.39 17.57 75.92 20.02L75.92 20.02L75.92 20.02Q75.46 22.46 75.42 25.34L75.42 25.34L75.42 25.34Q75.38 28.22 75.71 31.46L75.71 31.46L75.71 31.46Q76.03 34.70 76.32 37.91L76.32 37.91L76.32 37.91Q76.61 41.11 76.75 44.14L76.75 44.14L76.75 44.14Q76.90 47.16 76.61 49.68L76.61 49.68L76.61 49.68Q79.34 45.58 82.87 41.80L82.87 41.80L82.87 41.80Q86.40 38.02 89.57 34.06L89.57 34.06L89.57 34.06Q92.74 30.10 94.90 25.70L94.90 25.70L94.90 25.70Q97.06 21.31 97.06 15.91L97.06 15.91L97.06 15.91Q97.06 13.61 96.41 12.10L96.41 12.10L96.41 12.10Q95.76 10.58 94.54 10.44L94.54 10.44L94.54 10.44Q93.67 10.37 93.02 11.27L93.02 11.27L93.02 11.27Q92.38 12.17 91.87 13.25L91.87 13.25L91.87 13.25Q91.15 13.54 91.15 12.74L91.15 12.74L91.15 12.74Q91.94 10.73 93.24 9.18L93.24 9.18L93.24 9.18Q94.54 7.63 95.76 7.63L95.76 7.63L95.76 7.63Q97.49 7.63 98.53 9.36L98.53 9.36L98.53 9.36Q99.58 11.09 99.58 13.54L99.58 13.54L99.58 13.54Q99.58 17.86 98.42 21.42L98.42 21.42L98.42 21.42Q97.27 24.98 95.36 28.12L95.36 28.12L95.36 28.12Q93.46 31.25 91.01 34.13L91.01 34.13L91.01 34.13Q88.56 37.01 86.00 39.85L86.00 39.85L86.00 39.85Q83.45 42.70 80.96 45.68L80.96 45.68L80.96 45.68Q78.48 48.67 76.46 52.06L76.46 52.06L76.46 52.06Q75.89 52.92 75.42 53.46L75.42 53.46L75.42 53.46Q74.95 54.00 74.38 54.00L74.38 54.00L74.38 54.00Q74.02 54.00 73.91 53.78L73.91 53.78L73.91 53.78Q73.80 53.57 73.80 53.21L73.80 53.21L73.80 53.21Q73.80 52.85 73.91 52.38L73.91 52.38L73.91 52.38Q74.02 51.91 74.02 51.48ZM106.49 38.74L106.49 38.74L106.49 38.74Q106.49 39.74 105.70 40.61L105.70 40.61L105.70 40.61Q104.90 41.47 103.54 42.16L103.54 42.16L103.54 42.16Q102.17 42.84 100.40 43.42L100.40 43.42L100.40 43.42Q98.64 43.99 96.70 44.50L96.70 44.50L96.70 44.50Q96.62 45.29 96.59 46.08L96.59 46.08L96.59 46.08Q96.55 46.87 96.55 47.81L96.55 47.81L96.55 47.81Q96.55 49.61 97.34 50.83L97.34 50.83L97.34 50.83Q98.14 52.06 99.58 52.06L99.58 52.06L99.58 52.06Q101.02 52.06 102.28 51.34L102.28 51.34L102.28 51.34Q103.54 50.62 104.54 49.39L104.54 49.39L104.54 49.39Q104.83 49.25 104.98 49.46L104.98 49.46L104.98 49.46Q105.12 49.68 104.98 49.97L104.98 49.97L104.98 49.97Q103.75 51.62 101.92 52.81L101.92 52.81L101.92 52.81Q100.08 54.00 98.06 54.00L98.06 54.00L98.06 54.00Q96.19 54.00 95.00 52.78L95.00 52.78L95.00 52.78Q93.82 51.55 93.82 49.18L93.82 49.18L93.82 49.18Q93.82 47.02 94.61 44.60L94.61 44.60L94.61 44.60Q95.40 42.19 96.70 40.18L96.70 40.18L96.70 40.18Q97.99 38.16 99.68 36.86L99.68 36.86L99.68 36.86Q101.38 35.57 103.25 35.57L103.25 35.57L103.25 35.57Q104.62 35.57 105.55 36.54L105.55 36.54L105.55 36.54Q106.49 37.51 106.49 38.74ZM101.74 37.44L101.74 37.44L101.74 37.44Q100.08 37.44 98.78 38.88L98.78 38.88L98.78 38.88Q97.49 40.32 96.91 43.42L96.91 43.42L96.91 43.42Q100.37 42.91 101.99 41.94L101.99 41.94L101.99 41.94Q103.61 40.97 103.61 39.74L103.61 39.74L103.61 39.74Q103.61 38.74 103.10 38.09L103.10 38.09L103.10 38.09Q102.60 37.44 101.74 37.44ZM140.40-0.43L140.40-0.43L140.40-0.43Q142.70-0.43 143.75 1.37L143.75 1.37L143.75 1.37Q144.79 3.17 144.22 5.54L144.22 5.54L144.22 5.54Q143.78 5.98 143.50 5.47L143.50 5.47L143.50 5.47Q143.35 4.03 142.24 2.99L142.24 2.99L142.24 2.99Q141.12 1.94 138.82 1.94L138.82 1.94L138.82 1.94Q135.58 1.94 132.23 3.89L132.23 3.89L132.23 3.89Q128.88 5.83 125.60 10.37L125.60 10.37L125.60 10.37Q122.33 14.90 119.20 22.36L119.20 22.36L119.20 22.36Q116.06 29.81 113.18 40.82L113.18 40.82L113.18 40.82Q113.83 39.89 114.66 38.99L114.66 38.99L114.66 38.99Q115.49 38.09 116.50 37.33L116.50 37.33L116.50 37.33Q117.50 36.58 118.58 36.11L118.58 36.11L118.58 36.11Q119.66 35.64 120.74 35.64L120.74 35.64L120.74 35.64Q122.40 35.64 123.08 37.01L123.08 37.01L123.08 37.01Q123.77 38.38 123.77 40.18L123.77 40.18L123.77 40.18Q123.77 42.48 122.62 44.96L122.62 44.96L122.62 44.96Q121.46 47.45 119.70 49.46L119.70 49.46L119.70 49.46Q117.94 51.48 115.85 52.78L115.85 52.78L115.85 52.78Q113.76 54.07 111.96 54.07L111.96 54.07L111.96 54.07Q110.66 54.07 109.84 53.32L109.84 53.32L109.84 53.32Q109.01 52.56 109.01 50.69L109.01 50.69L109.01 50.69Q109.01 49.10 109.51 46.51L109.51 46.51L109.51 46.51Q110.02 43.92 110.88 40.79L110.88 40.79L110.88 40.79Q111.74 37.66 112.97 34.20L112.97 34.20L112.97 34.20Q114.19 30.74 115.63 27.36L115.63 27.36L115.63 27.36Q121.68 13.10 127.76 6.34L127.76 6.34L127.76 6.34Q133.85-0.43 140.40-0.43ZM119.16 38.02L119.16 38.02L119.16 38.02Q118.08 38.02 116.86 38.70L116.86 38.70L116.86 38.70Q115.63 39.38 114.55 40.75L114.55 40.75L114.55 40.75Q113.47 42.12 112.72 44.21L112.72 44.21L112.72 44.21Q111.96 46.30 111.74 49.03L111.74 49.03L111.74 49.03Q111.60 50.62 112.14 51.26L112.14 51.26L112.14 51.26Q112.68 51.91 113.76 51.91L113.76 51.91L113.76 51.91Q115.13 51.91 116.50 51.01L116.50 51.01L116.50 51.01Q117.86 50.11 118.94 48.67L118.94 48.67L118.94 48.67Q120.02 47.23 120.71 45.43L120.71 45.43L120.71 45.43Q121.39 43.63 121.39 41.83L121.39 41.83L121.39 41.83Q121.39 39.74 120.74 38.88L120.74 38.88L120.74 38.88Q120.10 38.02 119.16 38.02ZM166.25 11.45L166.25 11.45L166.25 11.45Q169.78 13.54 172.58 16.45L172.58 16.45L172.58 16.45Q175.39 19.37 177.37 22.61L177.37 22.61L177.37 22.61Q179.35 25.85 180.40 29.20L180.40 29.20L180.40 29.20Q181.44 32.54 181.44 35.57L181.44 35.57L181.44 35.57Q181.44 39.60 180.14 42.95L180.14 42.95L180.14 42.95Q178.85 46.30 176.33 48.78L176.33 48.78L176.33 48.78Q173.81 51.26 170.14 52.63L170.14 52.63L170.14 52.63Q166.46 54.00 161.78 54.00L161.78 54.00L161.78 54.00Q159.05 54.00 156.67 53.64L156.67 53.64L156.67 53.64Q154.30 53.28 152.17 52.74L152.17 52.74L152.17 52.74Q150.05 52.20 148.10 51.55L148.10 51.55L148.10 51.55Q146.16 50.90 144.22 50.26L144.22 50.26L144.22 50.26Q141.41 52.20 138.06 53.10L138.06 53.10L138.06 53.10Q134.71 54.00 130.61 54.00L130.61 54.00L130.61 54.00Q128.30 54.00 127.37 53.46L127.37 53.46L127.37 53.46Q126.43 52.92 126.43 51.98L126.43 51.98L126.43 51.98Q126.43 51.05 127.08 50.00L127.08 50.00L127.08 50.00Q127.73 48.96 128.88 48.10L128.88 48.10L128.88 48.10Q130.03 47.23 131.69 46.69L131.69 46.69L131.69 46.69Q133.34 46.15 135.43 46.15L135.43 46.15L135.43 46.15Q138.17 46.15 140.54 46.66L140.54 46.66L140.54 46.66Q142.92 47.16 145.15 47.88L145.15 47.88L145.15 47.88Q147.82 45.07 150.12 40.10L150.12 40.10L150.12 40.10Q152.42 35.14 155.02 27.14L155.02 27.14L155.02 27.14Q156.53 22.54 158.33 18.94L158.33 18.94L158.33 18.94Q160.13 15.34 162.43 12.82L162.43 12.82L162.43 12.82Q159.62 11.38 156.46 10.51L156.46 10.51L156.46 10.51Q153.29 9.65 149.83 9.65L149.83 9.65L149.83 9.65Q147.02 9.65 144.68 10.55L144.68 10.55L144.68 10.55Q142.34 11.45 140.54 13.07L140.54 13.07L140.54 13.07Q138.74 14.69 137.59 16.92L137.59 16.92L137.59 16.92Q136.44 19.15 136.01 21.89L136.01 21.89L136.01 21.89Q135.58 22.32 135.43 21.60L135.43 21.60L135.43 21.60Q135.72 18.58 137.02 16.02L137.02 16.02L137.02 16.02Q138.31 13.46 140.51 11.59L140.51 11.59L140.51 11.59Q142.70 9.72 145.76 8.68L145.76 8.68L145.76 8.68Q148.82 7.63 152.64 7.63L152.64 7.63L152.64 7.63Q155.95 7.63 158.98 8.42L158.98 8.42L158.98 8.42Q162.00 9.22 164.74 10.66L164.74 10.66L164.74 10.66Q168.62 7.49 173.95 6.41L173.95 6.41L173.95 6.41Q174.17 6.41 174.20 6.66L174.20 6.66L174.20 6.66Q174.24 6.91 174.02 7.06L174.02 7.06L174.02 7.06Q171.72 7.63 169.81 8.75L169.81 8.75L169.81 8.75Q167.90 9.86 166.25 11.45ZM133.06 52.70L133.06 52.70L133.06 52.70Q136.08 52.70 138.49 52.09L138.49 52.09L138.49 52.09Q140.90 51.48 142.99 49.90L142.99 49.90L142.99 49.90Q140.62 49.18 138.10 48.67L138.10 48.67L138.10 48.67Q135.58 48.17 132.55 48.17L132.55 48.17L132.55 48.17Q130.61 48.17 129.67 48.82L129.67 48.82L129.67 48.82Q128.74 49.46 128.59 50.40L128.59 50.40L128.59 50.40Q128.45 51.41 129.38 52.06L129.38 52.06L129.38 52.06Q130.32 52.70 133.06 52.70ZM165.02 52.06L165.02 52.06L165.02 52.06Q171.86 52.06 175.28 48.20L175.28 48.20L175.28 48.20Q178.70 44.35 178.70 37.87L178.70 37.87L178.70 37.87Q178.70 34.49 177.70 31.07L177.70 31.07L177.70 31.07Q176.69 27.65 174.78 24.44L174.78 24.44L174.78 24.44Q172.87 21.24 170.21 18.50L170.21 18.50L170.21 18.50Q167.54 15.77 164.23 13.75L164.23 13.75L164.23 13.75Q162.36 16.06 160.92 19.04L160.92 19.04L160.92 19.04Q159.48 22.03 158.26 25.70L158.26 25.70L158.26 25.70Q155.59 33.98 152.82 39.49L152.82 39.49L152.82 39.49Q150.05 45.00 146.52 48.38L146.52 48.38L146.52 48.38Q148.32 49.03 150.26 49.68L150.26 49.68L150.26 49.68Q152.21 50.33 154.40 50.87L154.40 50.87L154.40 50.87Q156.60 51.41 159.23 51.73L159.23 51.73L159.23 51.73Q161.86 52.06 165.02 52.06ZM196.63 38.74L196.63 38.74L196.63 38.74Q196.63 39.74 195.84 40.61L195.84 40.61L195.84 40.61Q195.05 41.47 193.68 42.16L193.68 42.16L193.68 42.16Q192.31 42.84 190.55 43.42L190.55 43.42L190.55 43.42Q188.78 43.99 186.84 44.50L186.84 44.50L186.84 44.50Q186.77 45.29 186.73 46.08L186.73 46.08L186.73 46.08Q186.70 46.87 186.70 47.81L186.70 47.81L186.70 47.81Q186.70 49.61 187.49 50.83L187.49 50.83L187.49 50.83Q188.28 52.06 189.72 52.06L189.72 52.06L189.72 52.06Q191.16 52.06 192.42 51.34L192.42 51.34L192.42 51.34Q193.68 50.62 194.69 49.39L194.69 49.39L194.69 49.39Q194.98 49.25 195.12 49.46L195.12 49.46L195.12 49.46Q195.26 49.68 195.12 49.97L195.12 49.97L195.12 49.97Q193.90 51.62 192.06 52.81L192.06 52.81L192.06 52.81Q190.22 54.00 188.21 54.00L188.21 54.00L188.21 54.00Q186.34 54.00 185.15 52.78L185.15 52.78L185.15 52.78Q183.96 51.55 183.96 49.18L183.96 49.18L183.96 49.18Q183.96 47.02 184.75 44.60L184.75 44.60L184.75 44.60Q185.54 42.19 186.84 40.18L186.84 40.18L186.84 40.18Q188.14 38.16 189.83 36.86L189.83 36.86L189.83 36.86Q191.52 35.57 193.39 35.57L193.39 35.57L193.39 35.57Q194.76 35.57 195.70 36.54L195.70 36.54L195.70 36.54Q196.63 37.51 196.63 38.74ZM191.88 37.44L191.88 37.44L191.88 37.44Q190.22 37.44 188.93 38.88L188.93 38.88L188.93 38.88Q187.63 40.32 187.06 43.42L187.06 43.42L187.06 43.42Q190.51 42.91 192.13 41.94L192.13 41.94L192.13 41.94Q193.75 40.97 193.75 39.74L193.75 39.74L193.75 39.74Q193.75 38.74 193.25 38.09L193.25 38.09L193.25 38.09Q192.74 37.44 191.88 37.44ZM203.98 52.99L203.98 52.99L203.98 52.99Q202.97 53.42 201.96 53.71L201.96 53.71L201.96 53.71Q200.95 54.00 200.16 54.00L200.16 54.00L200.16 54.00Q199.30 54.00 199.73 53.06L199.73 53.06L199.73 53.06Q200.95 50.04 201.82 46.48L201.82 46.48L201.82 46.48Q202.68 42.91 202.97 40.10L202.97 40.10L202.97 40.10Q203.18 37.58 202.18 37.58L202.18 37.58L202.18 37.58Q201.17 37.58 199.51 39.24L199.51 39.24L199.51 39.24Q199.15 39.38 198.94 39.17L198.94 39.17L198.94 39.17Q198.72 38.95 198.94 38.66L198.94 38.66L198.94 38.66Q200.59 37.01 201.85 36.29L201.85 36.29L201.85 36.29Q203.11 35.57 204.19 35.57L204.19 35.57L204.19 35.57Q205.06 35.57 205.38 36.22L205.38 36.22L205.38 36.22Q205.70 36.86 205.70 37.87L205.70 37.87L205.70 37.87Q205.70 39.24 205.42 41.11L205.42 41.11L205.42 41.11Q205.13 42.98 204.66 45.04L204.66 45.04L204.66 45.04Q204.19 47.09 203.62 49.07L203.62 49.07L203.62 49.07Q203.04 51.05 202.54 52.63L202.54 52.63L202.54 52.63Q204.55 52.13 206.57 50.76L206.57 50.76L206.57 50.76Q208.58 49.39 210.17 47.59L210.17 47.59L210.17 47.59Q211.75 45.79 212.72 43.67L212.72 43.67L212.72 43.67Q213.70 41.54 213.70 39.38L213.70 39.38L213.70 39.38Q213.70 37.51 212.47 37.51L212.47 37.51L212.47 37.51Q211.46 37.51 210.67 38.66L210.67 38.66L210.67 38.66Q210.46 38.81 210.31 38.59L210.31 38.59L210.31 38.59Q210.17 38.38 210.24 38.16L210.24 38.16L210.24 38.16Q210.82 37.22 211.86 36.40L211.86 36.40L211.86 36.40Q212.90 35.57 213.91 35.57L213.91 35.57L213.91 35.57Q214.70 35.57 215.24 36.29L215.24 36.29L215.24 36.29Q215.78 37.01 215.78 38.45L215.78 38.45L215.78 38.45Q215.78 40.54 214.88 42.62L214.88 42.62L214.88 42.62Q213.98 44.71 212.40 46.66L212.40 46.66L212.40 46.66Q210.82 48.60 208.66 50.26L208.66 50.26L208.66 50.26Q206.50 51.91 203.98 52.99Z"/></svg>